IKResults
version=1
nRows=5
nColumns=63
inDegrees=yes

Units are S.I. units (second, meters, Newtons, ...)
If the header above contains a line with 'inDegrees', this indicates whether rotational values are in degrees (yes) or radians (no).

endheader
time	pelvis_tilt	pelvis_list	pelvis_rotation	pelvis_tx	pelvis_ty	pelvis_tz	hip_flexion_r	hip_adduction_r	hip_rotation_r	knee_angle_r	knee_angle_r_beta	ankle_angle_r	subtalar_angle_r	mtp_angle_r	hip_flexion_l	hip_adduction_l	hip_rotation_l	knee_angle_l	knee_angle_l_beta	ankle_angle_l	subtalar_angle_l	mtp_angle_l	L5_S1_Flex_Ext	L5_S1_Lat_Bending	L5_S1_axial_rotation	L4_L5_Flex_Ext	L4_L5_Lat_Bending	L4_L5_axial_rotation	L3_L4_Flex_Ext	L3_L4_Lat_Bending	L3_L4_axial_rotation	L2_L3_Flex_Ext	L2_L3_Lat_Bending	L2_L3_axial_rotation	L1_L2_Flex_Ext	L1_L2_Lat_Bending	L1_L2_axial_rotation	L1_T12_Flex_Ext	L1_T12_Lat_Bending	L1_T12_axial_rotation	Abs_r3	Abs_r2	Abs_r1	Abs_t1	Abs_t2	neck_flexion	neck_bending	neck_rotation	arm_flex_r	arm_add_r	arm_rot_r	elbow_flex_r	pro_sup_r	wrist_flex_r	wrist_dev_r	arm_flex_l	arm_add_l	arm_rot_l	elbow_flex_l	pro_sup_l	wrist_flex_l	wrist_dev_l
      4.03333333	    -79.99246400	     27.12244046	     64.94095492	     -0.87274362	      0.25237327	     -0.00854590	    119.85734713	     20.53071556	     34.78371198	     36.67215592	      0.64004986	    -73.15075754	    -12.47961614	      0.00000000	     53.16027421	     -7.33560714	     -7.65343535	     18.65344695	      0.32556407	    -52.36626183	      8.35315501	      0.00000000	      8.08079023	      1.84207863	      2.32984691	     15.00683553	      2.44996458	      2.47546234	     13.27593027	      4.47882999	      2.47546234	      9.23553515	      4.47882999	      2.03861604	      7.50382181	      3.75636675	      1.89300061	      4.61736354	      2.85337980	      1.74738518	     57.72027653	     20.83796191	     12.95790955	      0.00000000	      0.00000000	     26.23242519	      1.75235158	    -44.25807987	    155.11131170	      4.79216602	    203.40939997	     26.83096244	     89.99559364	      0.00000000	      0.00000000	     31.60848087	     27.95393162	     17.70363739	     50.52983479	     89.99559364	      0.00000000	      0.00000000
      4.06666667	    -80.33594181	     26.78251513	     64.65057895	     -0.87306665	      0.25164442	     -0.00838217	    120.17313160	     20.90348267	     34.74721683	     36.32660567	      0.63401888	    -72.00461005	    -12.42187295	      0.00000000	     53.59410509	     -7.64742484	     -8.07486349	     18.74318766	      0.32713034	    -52.57909430	      8.30149626	      0.00000000	      8.14899110	      1.83731982	      2.47561555	     15.13349136	      2.44363536	      2.63034152	     13.38797747	      4.46725940	      2.63034152	      9.31348192	      4.46725940	      2.16616360	      7.56715313	      3.74666257	      2.01143763	      4.65633351	      2.84600840	      1.85671166	     58.20742850	     20.78412923	     13.76863099	      0.00000000	      0.00000000	     26.27009172	      1.63968720	    -44.23983220	    156.15367051	      3.79955513	    198.15326575	     27.73517224	     89.99559364	      0.00000000	      0.00000000	     31.55850798	     28.09338185	     17.96713484	     50.30643627	     89.99559364	      0.00000000	      0.00000000
      4.10000000	    -80.49556648	     26.71210136	     64.68354622	     -0.87371353	      0.25119284	     -0.00822161	    120.21462478	     20.93788859	     34.78673987	     36.11745677	      0.63036854	    -72.00628594	    -12.40579754	      0.00000000	     53.84716575	     -7.66944020	     -8.13326628	     18.92418266	      0.33028930	    -52.77996909	      8.32245756	      0.00000000	      8.15638521	      1.82014944	      2.50148208	     15.14722297	      2.42079876	      2.65782471	     13.40012526	      4.42551136	      2.65782471	      9.32193265	      4.42551136	      2.18879682	      7.57401930	      3.71164875	      2.03245419	      4.66055851	      2.81941149	      1.87611156	     58.26024389	     20.58989455	     13.91249287	      0.00000000	      0.00000000	     26.22950510	      1.66653323	    -44.18501801	    156.35087231	      3.73170199	    198.01060412	     28.02542863	     89.99559364	      0.00000000	      0.00000000	     31.66976298	     28.02901969	     17.98369027	     50.21778817	     89.99559364	      0.00000000	      0.00000000
      4.13333333	    -80.99332988	     26.16663375	     64.45596815	     -0.87411635	      0.25000928	     -0.00821775	    120.74996475	     21.37069455	     34.85744837	     35.81974071	      0.62517241	    -72.06530209	    -12.34170146	      0.00000000	     54.43726174	     -8.00847799	     -8.84697220	     18.86024418	      0.32917336	    -53.12835338	      8.35431667	      0.00000000	      8.27456006	      1.79762384	      2.70399029	     15.36668549	      2.39083970	      2.87298969	     13.59427473	      4.37074260	      2.87298969	      9.45699469	      4.37074260	      2.36599151	      7.68375647	      3.66571453	      2.19699211	      4.72808362	      2.78451932	      2.02799272	     59.10435506	     20.33508038	     15.03878282	      0.00000000	      0.00000000	     26.20877611	      1.41430360	    -44.14366811	    157.22114901	      3.38374458	    196.74043315	     29.56275649	     89.99559364	      0.00000000	      0.00000000	     31.64754317	     28.11537016	     18.83782846	     49.94628722	     89.99559364	      0.00000000	      0.00000000
      4.16666667	    -81.01777395	     26.13468740	     64.44743319	     -0.87455015	      0.24957808	     -0.00801509	    120.77330566	     21.39809364	     34.84205751	     35.79243175	      0.62469578	    -72.06862700	    -12.33211897	      0.00000000	     54.50983964	     -8.05873127	     -8.83580316	     18.87127213	      0.32936583	    -53.16167230	      8.36267503	      0.00000000	      8.26861901	      1.79065933	      2.70438777	     15.35565236	      2.38157691	      2.87341201	     13.58451417	      4.35380910	      2.87341201	      9.45020466	      4.35380910	      2.36633930	      7.67823961	      3.65151251	      2.19731507	      4.72468890	      2.77373131	      2.02829083	     59.06191871	     20.25629650	     15.04099349	      0.00000000	      0.00000000	     26.16493146	      1.41997726	    -44.05169533	    157.34736743	      3.31517784	    196.73325723	     29.56697550	     89.99559364	      0.00000000	      0.00000000	     31.70248636	     28.04193811	     18.80721321	     49.94056820	     89.99559364	      0.00000000	      0.00000000
